<svg width="90" height="90" viewBox="0 0 90 90" fill="none" xmlns="http://www.w3.org/2000/svg">
<circle cx="45" cy="45" r="45" fill="white"/>
<path d="M12.408 53.168C10.856 53.168 9.424 52.808 8.112 52.088C6.816 51.352 5.784 50.336 5.016 49.04C4.264 47.728 3.888 46.256 3.888 44.624C3.888 42.992 4.264 41.528 5.016 40.232C5.784 38.936 6.816 37.928 8.112 37.208C9.424 36.472 10.856 36.104 12.408 36.104C13.976 36.104 15.408 36.472 16.704 37.208C18.016 37.928 19.048 38.936 19.8 40.232C20.552 41.528 20.928 42.992 20.928 44.624C20.928 46.256 20.552 47.728 19.8 49.04C19.048 50.336 18.016 51.352 16.704 52.088C15.408 52.808 13.976 53.168 12.408 53.168ZM12.408 50.792C13.512 50.792 14.496 50.544 15.36 50.048C16.224 49.536 16.896 48.816 17.376 47.888C17.872 46.944 18.12 45.856 18.12 44.624C18.12 43.392 17.872 42.312 17.376 41.384C16.896 40.456 16.224 39.744 15.36 39.248C14.496 38.752 13.512 38.504 12.408 38.504C11.304 38.504 10.32 38.752 9.456 39.248C8.592 39.744 7.912 40.456 7.416 41.384C6.936 42.312 6.696 43.392 6.696 44.624C6.696 45.856 6.936 46.944 7.416 47.888C7.912 48.816 8.592 49.536 9.456 50.048C10.32 50.544 11.304 50.792 12.408 50.792ZM39.8683 39.56C40.9083 39.56 41.8363 39.776 42.6523 40.208C43.4843 40.64 44.1323 41.28 44.5963 42.128C45.0763 42.976 45.3163 44 45.3163 45.2V53H42.6043V45.608C42.6043 44.424 42.3083 43.52 41.7163 42.896C41.1243 42.256 40.3163 41.936 39.2923 41.936C38.2683 41.936 37.4523 42.256 36.8443 42.896C36.2523 43.52 35.9563 44.424 35.9563 45.608V53H33.2443V45.608C33.2443 44.424 32.9483 43.52 32.3563 42.896C31.7643 42.256 30.9563 41.936 29.9323 41.936C28.9083 41.936 28.0923 42.256 27.4843 42.896C26.8923 43.52 26.5963 44.424 26.5963 45.608V53H23.8603V39.776H26.5963V41.288C27.0443 40.744 27.6123 40.32 28.3003 40.016C28.9883 39.712 29.7243 39.56 30.5083 39.56C31.5643 39.56 32.5083 39.784 33.3403 40.232C34.1723 40.68 34.8123 41.328 35.2603 42.176C35.6603 41.376 36.2843 40.744 37.1323 40.28C37.9803 39.8 38.8923 39.56 39.8683 39.56ZM48.1258 46.328C48.1258 45 48.3978 43.824 48.9418 42.8C49.5018 41.776 50.2538 40.984 51.1978 40.424C52.1578 39.848 53.2138 39.56 54.3658 39.56C55.4058 39.56 56.3098 39.768 57.0778 40.184C57.8618 40.584 58.4858 41.088 58.9498 41.696V39.776H61.7098V53H58.9498V51.032C58.4858 51.656 57.8538 52.176 57.0538 52.592C56.2538 53.008 55.3418 53.216 54.3178 53.216C53.1818 53.216 52.1418 52.928 51.1978 52.352C50.2538 51.76 49.5018 50.944 48.9418 49.904C48.3978 48.848 48.1258 47.656 48.1258 46.328ZM58.9498 46.376C58.9498 45.464 58.7578 44.672 58.3738 44C58.0058 43.328 57.5178 42.816 56.9098 42.464C56.3018 42.112 55.6458 41.936 54.9418 41.936C54.2378 41.936 53.5818 42.112 52.9738 42.464C52.3658 42.8 51.8698 43.304 51.4858 43.976C51.1178 44.632 50.9338 45.416 50.9338 46.328C50.9338 47.24 51.1178 48.04 51.4858 48.728C51.8698 49.416 52.3658 49.944 52.9738 50.312C53.5978 50.664 54.2538 50.84 54.9418 50.84C55.6458 50.84 56.3018 50.664 56.9098 50.312C57.5178 49.96 58.0058 49.448 58.3738 48.776C58.7578 48.088 58.9498 47.288 58.9498 46.376ZM72.3834 39.56C73.3914 39.56 74.2874 39.776 75.0714 40.208C75.8714 40.64 76.4954 41.28 76.9434 42.128C77.4074 42.976 77.6394 44 77.6394 45.2V53H74.9274V45.608C74.9274 44.424 74.6314 43.52 74.0394 42.896C73.4474 42.256 72.6394 41.936 71.6154 41.936C70.5914 41.936 69.7754 42.256 69.1674 42.896C68.5754 43.52 68.2794 44.424 68.2794 45.608V53H65.5434V35.24H68.2794V41.312C68.7434 40.752 69.3274 40.32 70.0314 40.016C70.7514 39.712 71.5354 39.56 72.3834 39.56Z" fill="#1B2021"/>
<circle cx="85" cy="52" r="3" fill="#F58634"/>
</svg>
